<?xml version="1.0" ?>
<svg xmlns="http://www.w3.org/2000/svg" width="1400" height="2200">
  <g>
    <g>
      <path stroke="red" stroke-width="6" fill="none" d="M116.41301104148069,1425.499488394636L125.04236245191726,1425.499488394636L202.00935044265418,1348.5325004038991 M202.00935044265418,1348.5325004038991L215.22232560557376,1348.5325004038991L290.5898736695514,1273.1649523399215 M290.5898736695514,1273.1649523399215L352.8872220914882,1273.1649523399215L357.7340097483361,1268.3181646830735 M357.7340097483361,1268.3181646830735L481.62727098856254,1268.3181646830735L500.6266786034044,1249.3187570682317"/>
    </g>
    <g>
      <path stroke="red" stroke-width="6" fill="none" d="M116.41301104148069,1425.499488394636L116.41301104148069,1507.6402219938748L137.79966179250334,1529.0268727448974 M137.79966179250334,1529.0268727448974L137.79966179250334,1563.0131582702156L165.90072615140093,1591.114222629113 M165.90072615140093,1591.114222629113L165.90072615140093,1719.451016457517L295.3645677907123,1848.9148580968283 M295.3645677907123,1848.9148580968283L400.60092195836586,1848.9148580968283L451.68606386153755,1900.0 M451.68606386153755,1900.0L598.0758273894304,1900.0L678.4840346165294,1819.591792772901 M678.4840346165294,1819.591792772901L737.0026853797397,1819.591792772901L741.8979409131557,1814.696537239485 M741.8979409131557,1814.696537239485L741.8979409131557,1528.4657666888475L733.4924898040377,1520.0603155797296"/>
    </g>
    <g>
      <path stroke="red" stroke-width="6" fill="none" d="M116.41301104148069,1425.499488394636L116.41301104148069,1365.5822005399518L131.18472097881542,1350.8104906026172 M131.18472097881542,1350.8104906026172L131.18472097881542,918.4969079571126L100.0,887.3121869782972"/>
    </g>
    <g>
      <path stroke="red" stroke-width="6" fill="none" d="M116.41301104148069,1425.499488394636L277.1541236958698,1425.499488394636L290.19198249278924,1412.4616295977166 M290.19198249278924,1412.4616295977166L290.19198249278924,1449.8549839440304L384.2435094001777,1543.906510851419 M384.2435094001777,1543.906510851419L425.419539995567,1543.906510851419L448.00557047647635,1566.4925413323283 M448.00557047647635,1566.4925413323283L583.0675405165998,1566.4925413323283L677.2406246891455,1472.3194571597826 M677.2406246891455,1472.3194571597826L685.7516313840907,1472.3194571597826L733.4924898040377,1520.0603155797296 M733.4924898040377,1520.0603155797296L785.3882248949932,1520.0603155797296L856.4905998209452,1448.9579406537775 M856.4905998209452,1448.9579406537775L947.0381698308682,1448.9579406537775L961.3846612951362,1434.6114491895096 M961.3846612951362,1434.6114491895096L1083.3755183370133,1434.6114491895096L1100.0,1451.2359308524963 M1100.0,1451.2359308524963L1100.0,1207.5929894248895L1099.8010544116119,1207.3940438365014 M1099.8010544116119,1207.3940438365014L1099.8010544116119,1111.4869049602783L1030.9658808315912,1042.6517313802576"/>
    </g>
    <g>
      <path stroke="red" stroke-width="6" fill="none" d="M500.6266786034044,1249.3187570682317L500.6266786034044,1327.2225367542442L577.917039689647,1404.5128978404869 M577.917039689647,1404.5128978404869L691.2563526401744,1404.5128978404869L698.4780662488771,1411.7346114491895 M698.4780662488771,1411.7346114491895L698.4780662488771,1407.2458106774789L710.6137471401532,1395.1101297862028 M710.6137471401532,1395.1101297862028L745.7165991112478,1395.1101297862028L769.9990052720533,1419.3925359470084 M769.9990052720533,1419.3925359470084L769.9990052720533,1229.8210373061988L803.6705461056362,1196.149496472616 M803.6705461056362,1196.149496472616L803.6705461056362,1192.4272544056546L870.5660001989426,1125.5318003123482 M870.5660001989426,1125.5318003123482L870.5660001989426,1115.1436167996176L976.355316820845,1009.3543001777152"/>
    </g>
    <g>
      <path stroke="red" stroke-width="6" fill="none" d="M290.5898736695514,1273.1649523399215L290.5898736695514,1271.77233750679L334.8055306873545,1227.556680488987 M334.8055306873545,1227.556680488987L334.8055306873545,1186.3047593674191L366.8855068138885,1154.2247832408852 M366.8855068138885,1154.2247832408852L366.8855068138885,1108.4690598067084L509.3305480950975,966.0240185254994 M509.3305480950975,966.0240185254994L509.3305480950975,937.876079440392L561.106137471404,886.1004900640855 M561.106137471404,886.1004900640855L561.106137471404,849.5250239699692L789.8438277131169,620.7873337282564"/>
    </g>
    <g>
      <path stroke="red" stroke-width="6" fill="none" d="M290.19198249278924,1412.4616295977166L290.19198249278924,1404.0425451070846L315.45807221724715,1378.7764553826266 M315.45807221724715,1378.7764553826266L552.1805972317868,1378.7764553826266L577.917039689647,1404.5128978404869"/>
    </g>
    <g>
      <path stroke="red" stroke-width="6" fill="none" d="M137.79966179250334,1529.0268727448974L369.3638712936562,1529.0268727448974L384.2435094001777,1543.906510851419"/>
    </g>
    <g>
      <path stroke="red" stroke-width="6" fill="none" d="M500.6266786034044,1249.3187570682317L500.6266786034044,1168.7019323194268L495.50382970257834,1163.5790834186007 M495.50382970257834,1163.5790834186007L495.50382970257834,979.8507369180186L509.3305480950975,966.0240185254994 M509.3305480950975,966.0240185254994L509.3305480950975,887.6096052224339L465.36357306276557,843.642630190102 M465.36357306276557,843.642630190102L465.36357306276557,803.8691113521352L434.22858848105426,772.7341267704239 M434.22858848105426,772.7341267704239L434.22858848105426,737.4499888594639L439.9482741470236,731.7303031934946 M439.9482741470236,731.7303031934946L439.9482741470236,694.1392632082479L437.262508703868,691.4534977650924 M437.262508703868,691.4534977650924L437.262508703868,651.003593389734L430.74704068437416,644.4881253702401 M430.74704068437416,644.4881253702401L430.74704068437416,543.5929645044525L433.23386053914163,541.1061446496851 M433.23386053914163,541.1061446496851L433.23386053914163,383.75415510781687L407.6196160350185,358.13991060369375 M407.6196160350185,358.13991060369375L407.6196160350185,254.18863254864192L386.2329652839959,232.8019817976193 M386.2329652839959,232.8019817976193L386.2329652839959,211.38399033991413L388.32189396200107,209.29506166190896 M388.32189396200107,209.29506166190896L307.57418232241196,209.29506166190896L198.27912066050303,100.0"/>
    </g>
    <g>
      <path stroke="red" stroke-width="6" fill="none" d="M500.6266786034044,1249.3187570682317L461.97948064123494,1249.3187570682317L366.8855068138885,1154.2247832408852 M366.8855068138885,1154.2247832408852L366.8855068138885,1143.6883387131058L295.4143041878093,1072.2171360870266 M295.4143041878093,1072.2171360870266L284.9049491087294,1072.2171360870266L100.0,887.3121869782972"/>
    </g>
    <g>
      <path stroke="red" stroke-width="6" fill="none" d="M465.36357306276557,843.642630190102L518.6482775974205,843.642630190102L561.106137471404,886.1004900640855 M561.106137471404,886.1004900640855L634.052417335946,886.1004900640855L682.8111011638308,934.8591738919704 M682.8111011638308,934.8591738919704L931.917352652082,934.8591738919704L934.8254252461905,931.9511012978618"/>
    </g>
    <g>
      <path stroke="red" stroke-width="6" fill="none" d="M100.0,887.3121869782972L253.47945136294402,887.3121869782972L386.2329652839959,754.5586730572453 M386.2329652839959,754.5586730572453L417.1199042832729,754.5586730572453L439.9482741470236,731.7303031934946 M439.9482741470236,731.7303031934946L506.2007051142085,731.7303031934946L599.4528996319536,638.4781086757495 M599.4528996319536,638.4781086757495L772.1530527656238,638.4781086757495L789.8438277131169,620.7873337282564"/>
    </g>
    <g>
      <path stroke="red" stroke-width="6" fill="none" d="M386.2329652839959,754.5586730572453L416.05313476787563,754.5586730572453L434.22858848105426,772.7341267704239"/>
    </g>
    <g>
      <path stroke="red" stroke-width="6" fill="none" d="M430.74704068437416,644.4881253702401L378.98063843941543,644.4881253702401L276.71341887993526,542.22090581076 M276.71341887993526,542.22090581076L250.64783659368723,542.22090581076L140.2864816472708,431.85955086434353"/>
    </g>
    <g>
      <path stroke="red" stroke-width="6" fill="none" d="M1030.9658808315912,1042.6517313802576L1009.6527480233874,1042.6517313802576L976.355316820845,1009.3543001777152 M976.355316820845,1009.3543001777152L976.355316820845,973.4809928725163L934.8254252461905,931.9511012978618 M934.8254252461905,931.9511012978618L934.8254252461905,765.7689312613301L789.8438277131169,620.7873337282564"/>
    </g>
    <g>
      <path stroke="red" stroke-width="6" fill="none" d="M677.2406246891455,1472.3194571597826L677.4392022565804,1472.3194571597826L698.3288570575929,1451.42980235877 M698.3288570575929,1451.42980235877L698.3288570575929,1411.8838206404737L698.4780662488771,1411.7346114491895"/>
    </g>
    <g>
      <path stroke="red" stroke-width="6" fill="none" d="M295.3645677907123,1848.9148580968283L404.4072067243918,1848.9148580968283L422.29185317815916,1831.030211643061 M422.29185317815916,1831.030211643061L422.29185317815916,1674.2182957869154L480.48343777976544,1616.026711185309"/>
    </g>
    <g>
      <path stroke="red" stroke-width="6" fill="none" d="M678.4840346165294,1819.591792772901L678.4840346165294,1814.027308022073L480.48343777976544,1616.026711185309 M480.48343777976544,1616.026711185309L480.48343777976544,1598.9704086356173L448.00557047647635,1566.4925413323283"/>
    </g>
    <g>
      <path stroke="red" stroke-width="6" fill="none" d="M334.8055306873545,1227.556680488987L334.8055306873545,1245.389685622092L357.7340097483361,1268.3181646830735"/>
    </g>
    <g>
      <path stroke="red" stroke-width="6" fill="none" d="M437.262508703868,691.4534977650924L437.262508703868,703.5291296373732L386.2329652839959,754.5586730572453"/>
    </g>
    <g>
      <path stroke="red" stroke-width="6" fill="none" d="M357.7340097483361,1268.3181646830735L357.7340097483361,1336.5005178515376L315.45807221724715,1378.7764553826266"/>
    </g>
    <g>
      <path stroke="red" stroke-width="6" fill="none" d="M769.9990052720533,1419.3925359470084L826.9251951141761,1419.3925359470084L856.4905998209452,1448.9579406537775"/>
    </g>
    <g>
      <path stroke="red" stroke-width="6" fill="none" d="M733.4924898040377,1520.0603155797296L733.4924898040377,1486.593435105215L698.3288570575929,1451.42980235877"/>
    </g>
    <g>
      <path stroke="red" stroke-width="6" fill="none" d="M451.68606386153755,1900.0L451.68606386153755,1860.4244223264393L422.29185317815916,1831.030211643061"/>
    </g>
    <g>
      <path stroke="red" stroke-width="6" fill="none" d="M961.3846612951362,1434.6114491895096L961.3846612951362,1302.8779859442398L1018.4820451606428,1245.7806020787332"/>
    </g>
    <g>
      <path stroke="red" stroke-width="6" fill="none" d="M500.6266786034044,1249.3187570682317L750.5012855100205,1249.3187570682317L803.6705461056362,1196.149496472616"/>
    </g>
    <g>
      <path stroke="red" stroke-width="6" fill="none" d="M870.5660001989426,1125.5318003123482L898.2332433942578,1125.5318003123482L1018.4820451606428,1245.7806020787332"/>
    </g>
    <g>
      <path stroke="red" stroke-width="6" fill="none" d="M386.2329652839959,754.5586730572453L386.2329652839959,981.39847499084L295.4143041878093,1072.2171360870266"/>
    </g>
    <g>
      <path stroke="red" stroke-width="6" fill="none" d="M433.23386053914163,541.1061446496851L502.0809356058893,541.1061446496851L599.4528996319536,638.4781086757495"/>
    </g>
    <g>
      <path stroke="red" stroke-width="6" fill="none" d="M433.23386053914163,541.1061446496851L277.8281800410101,541.1061446496851L276.71341887993526,542.22090581076"/>
    </g>
    <g>
      <path stroke="red" stroke-width="6" fill="none" d="M1018.4820451606428,1245.7806020787332L1061.41449616938,1245.7806020787332L1099.8010544116119,1207.3940438365014"/>
    </g>
    <g>
      <path stroke="red" stroke-width="6" fill="none" d="M140.2864816472708,431.85955086434353L140.2864816472708,157.99263901323224L198.27912066050303,100.0"/>
    </g>
    <g>
      <path stroke="red" stroke-width="6" fill="none" d="M131.18472097881542,1350.8104906026172L199.73136024393614,1350.8104906026172L202.00935044265418,1348.5325004038991"/>
    </g>
    <g>
      <path stroke="red" stroke-width="6" fill="none" d="M407.6196160350185,358.13991060369375L523.6146784902878,358.13991060369375L590.5003481547824,291.2542409391991"/>
    </g>
    <g>
      <path stroke="red" stroke-width="6" fill="none" d="M388.32189396200107,209.29506166190896L508.5411688774922,209.29506166190896L590.5003481547824,291.2542409391991"/>
    </g>
  </g>
  <g>
    <g>
      <circle r="9" fill="white" stroke="grey" stroke-width="6" cx="422.29185317815916" cy="1831.030211643061"/>
      <text text-anchor="start" dominant-baseline="middle" font-size="18" font-family="P22 Johnston Underground" x="440.29185317815916" y="1831.030211643061">Akuressa</text>
    </g>
    <g>
      <circle r="9" fill="white" stroke="grey" stroke-width="6" cx="290.5898736695514" cy="1273.1649523399215"/>
      <text text-anchor="start" dominant-baseline="middle" font-size="18" font-family="P22 Johnston Underground" x="308.5898736695514" y="1273.1649523399215">Ambepussa</text>
    </g>
    <g>
      <circle r="9" fill="white" stroke="grey" stroke-width="6" cx="1018.4820451606428" cy="1245.7806020787332"/>
      <text text-anchor="start" dominant-baseline="middle" font-size="18" font-family="P22 Johnston Underground" x="1036.4820451606429" y="1245.7806020787332">Ampara</text>
    </g>
    <g>
      <circle r="9" fill="white" stroke="grey" stroke-width="6" cx="386.2329652839959" cy="754.5586730572453"/>
      <text text-anchor="start" dominant-baseline="middle" font-size="18" font-family="P22 Johnston Underground" x="404.2329652839959" y="754.5586730572453">Anuradhapura</text>
    </g>
    <g>
      <circle r="9" fill="white" stroke="grey" stroke-width="6" cx="290.19198249278924" cy="1412.4616295977166"/>
      <text text-anchor="start" dominant-baseline="middle" font-size="18" font-family="P22 Johnston Underground" x="308.19198249278924" y="1412.4616295977166">Avissawella</text>
    </g>
    <g>
      <circle r="9" fill="white" stroke="grey" stroke-width="6" cx="710.6137471401532" cy="1395.1101297862028"/>
      <text text-anchor="start" dominant-baseline="middle" font-size="18" font-family="P22 Johnston Underground" x="728.6137471401532" y="1395.1101297862028">Badulla</text>
    </g>
    <g>
      <circle r="9" fill="white" stroke="grey" stroke-width="6" cx="1030.9658808315912" cy="1042.6517313802576"/>
      <text text-anchor="start" dominant-baseline="middle" font-size="18" font-family="P22 Johnston Underground" x="1048.9658808315912" y="1042.6517313802576">Batticaloa</text>
    </g>
    <g>
      <circle r="9" fill="white" stroke="grey" stroke-width="6" cx="677.2406246891455" cy="1472.3194571597826"/>
      <text text-anchor="start" dominant-baseline="middle" font-size="18" font-family="P22 Johnston Underground" x="695.2406246891455" y="1472.3194571597826">Beragala</text>
    </g>
    <g>
      <circle r="9" fill="white" stroke="grey" stroke-width="6" cx="976.355316820845" cy="1009.3543001777152"/>
      <text text-anchor="start" dominant-baseline="middle" font-size="18" font-family="P22 Johnston Underground" x="994.355316820845" y="1009.3543001777152">Chenkaladi</text>
    </g>
    <g>
      <circle r="9" fill="white" stroke="grey" stroke-width="6" cx="116.41301104148069" cy="1425.499488394636"/>
      <text text-anchor="start" dominant-baseline="middle" font-size="18" font-family="P22 Johnston Underground" x="134.41301104148067" y="1425.499488394636">Colombo</text>
    </g>
    <g>
      <circle r="9" fill="white" stroke="grey" stroke-width="6" cx="509.3305480950975" cy="966.0240185254994"/>
      <text text-anchor="start" dominant-baseline="middle" font-size="18" font-family="P22 Johnston Underground" x="527.3305480950976" y="966.0240185254994">Dambulla</text>
    </g>
    <g>
      <circle r="9" fill="white" stroke="grey" stroke-width="6" cx="434.22858848105426" cy="772.7341267704239"/>
      <text text-anchor="start" dominant-baseline="middle" font-size="18" font-family="P22 Johnston Underground" x="452.22858848105426" y="772.7341267704239">Galkulama</text>
    </g>
    <g>
      <circle r="9" fill="white" stroke="grey" stroke-width="6" cx="295.3645677907123" cy="1848.9148580968283"/>
      <text text-anchor="start" dominant-baseline="middle" font-size="18" font-family="P22 Johnston Underground" x="313.3645677907123" y="1848.9148580968283">Galle</text>
    </g>
    <g>
      <circle r="9" fill="white" stroke="grey" stroke-width="6" cx="182.66189197254678" cy="1346.0121708223382"/>
      <text text-anchor="start" dominant-baseline="middle" font-size="18" font-family="P22 Johnston Underground" x="200.66189197254678" y="1346.0121708223382">Gampaha</text>
    </g>
    <g>
      <circle r="9" fill="white" stroke="grey" stroke-width="6" cx="561.106137471404" cy="886.1004900640855"/>
      <text text-anchor="start" dominant-baseline="middle" font-size="18" font-family="P22 Johnston Underground" x="579.106137471404" y="886.1004900640855">Habarana</text>
    </g>
    <g>
      <circle r="9" fill="white" stroke="grey" stroke-width="6" cx="698.4780662488771" cy="1411.7346114491895"/>
      <text text-anchor="start" dominant-baseline="middle" font-size="18" font-family="P22 Johnston Underground" x="716.4780662488771" y="1411.7346114491895">Hali-Ela</text>
    </g>
    <g>
      <circle r="9" fill="white" stroke="grey" stroke-width="6" cx="741.8979409131557" cy="1814.696537239485"/>
      <text text-anchor="start" dominant-baseline="middle" font-size="18" font-family="P22 Johnston Underground" x="759.8979409131557" y="1814.696537239485">Hambantota</text>
    </g>
    <g>
      <circle r="9" fill="white" stroke="grey" stroke-width="6" cx="599.4528996319536" cy="638.4781086757495"/>
      <text text-anchor="start" dominant-baseline="middle" font-size="18" font-family="P22 Johnston Underground" x="617.4528996319536" y="638.4781086757495">Horowpothana</text>
    </g>
    <g>
      <circle r="9" fill="white" stroke="grey" stroke-width="6" cx="131.18472097881542" cy="1350.8104906026172"/>
      <text text-anchor="start" dominant-baseline="middle" font-size="18" font-family="P22 Johnston Underground" x="149.18472097881542" y="1350.8104906026172">Ja-Ela</text>
    </g>
    <g>
      <circle r="9" fill="white" stroke="grey" stroke-width="6" cx="198.27912066050303" cy="100.0"/>
      <text text-anchor="start" dominant-baseline="middle" font-size="18" font-family="P22 Johnston Underground" x="216.27912066050303" y="100.0">Jaffna</text>
    </g>
    <g>
      <circle r="9" fill="white" stroke="grey" stroke-width="6" cx="165.90072615140093" cy="1591.114222629113"/>
      <text text-anchor="start" dominant-baseline="middle" font-size="18" font-family="P22 Johnston Underground" x="183.90072615140093" y="1591.114222629113">Kalutara</text>
    </g>
    <g>
      <circle r="9" fill="white" stroke="grey" stroke-width="6" cx="500.6266786034044" cy="1249.3187570682317"/>
      <text text-anchor="start" dominant-baseline="middle" font-size="18" font-family="P22 Johnston Underground" x="518.6266786034043" y="1249.3187570682317">Kandy</text>
    </g>
    <g>
      <circle r="9" fill="white" stroke="grey" stroke-width="6" cx="1099.8010544116119" cy="1207.3940438365014"/>
      <text text-anchor="start" dominant-baseline="middle" font-size="18" font-family="P22 Johnston Underground" x="1117.8010544116119" y="1207.3940438365014">Karaitivu</text>
    </g>
    <g>
      <circle r="9" fill="white" stroke="grey" stroke-width="6" cx="315.45807221724715" cy="1378.7764553826266"/>
      <text text-anchor="start" dominant-baseline="middle" font-size="18" font-family="P22 Johnston Underground" x="333.45807221724715" y="1378.7764553826266">Karawanella</text>
    </g>
    <g>
      <circle r="9" fill="white" stroke="grey" stroke-width="6" cx="357.7340097483361" cy="1268.3181646830735"/>
      <text text-anchor="start" dominant-baseline="middle" font-size="18" font-family="P22 Johnston Underground" x="375.7340097483361" y="1268.3181646830735">Kegalle</text>
    </g>
    <g>
      <circle r="9" fill="white" stroke="grey" stroke-width="6" cx="386.2329652839959" cy="232.8019817976193"/>
      <text text-anchor="start" dominant-baseline="middle" font-size="18" font-family="P22 Johnston Underground" x="404.2329652839959" y="232.8019817976193">Kilinochchi</text>
    </g>
    <g>
      <circle r="9" fill="white" stroke="grey" stroke-width="6" cx="698.3288570575929" cy="1451.42980235877"/>
      <text text-anchor="start" dominant-baseline="middle" font-size="18" font-family="P22 Johnston Underground" x="716.3288570575929" y="1451.42980235877">Kumbalwela</text>
    </g>
    <g>
      <circle r="9" fill="white" stroke="grey" stroke-width="6" cx="366.8855068138885" cy="1154.2247832408852"/>
      <text text-anchor="start" dominant-baseline="middle" font-size="18" font-family="P22 Johnston Underground" x="384.8855068138885" y="1154.2247832408852">Kurunegala</text>
    </g>
    <g>
      <circle r="9" fill="white" stroke="grey" stroke-width="6" cx="480.48343777976544" cy="1616.026711185309"/>
      <text text-anchor="start" dominant-baseline="middle" font-size="18" font-family="P22 Johnston Underground" x="498.48343777976544" y="1616.026711185309">Madampe</text>
    </g>
    <g>
      <circle r="9" fill="white" stroke="grey" stroke-width="6" cx="870.5660001989426" cy="1125.5318003123482"/>
      <text text-anchor="start" dominant-baseline="middle" font-size="18" font-family="P22 Johnston Underground" x="888.5660001989426" y="1125.5318003123482">Maha Oya</text>
    </g>
    <g>
      <circle r="9" fill="white" stroke="grey" stroke-width="6" cx="407.6196160350185" cy="358.13991060369375"/>
      <text text-anchor="start" dominant-baseline="middle" font-size="18" font-family="P22 Johnston Underground" x="425.6196160350185" y="358.13991060369375">Mankulam</text>
    </g>
    <g>
      <circle r="9" fill="white" stroke="grey" stroke-width="6" cx="140.2864816472708" cy="431.85955086434353"/>
      <text text-anchor="start" dominant-baseline="middle" font-size="18" font-family="P22 Johnston Underground" x="158.2864816472708" y="431.85955086434353">Mannar</text>
    </g>
    <g>
      <circle r="9" fill="white" stroke="grey" stroke-width="6" cx="465.36357306276557" cy="843.642630190102"/>
      <text text-anchor="start" dominant-baseline="middle" font-size="18" font-family="P22 Johnston Underground" x="483.36357306276557" y="843.642630190102">Maradankadawala</text>
    </g>
    <g>
      <circle r="9" fill="white" stroke="grey" stroke-width="6" cx="495.50382970257834" cy="1163.5790834186007"/>
      <text text-anchor="start" dominant-baseline="middle" font-size="18" font-family="P22 Johnston Underground" x="513.5038297025783" y="1163.5790834186007">Matale</text>
    </g>
    <g>
      <circle r="9" fill="white" stroke="grey" stroke-width="6" cx="451.68606386153755" cy="1900.0"/>
      <text text-anchor="start" dominant-baseline="middle" font-size="18" font-family="P22 Johnston Underground" x="469.68606386153755" y="1900.0">Matara</text>
    </g>
    <g>
      <circle r="9" fill="white" stroke="grey" stroke-width="6" cx="430.74704068437416" cy="644.4881253702401"/>
      <text text-anchor="start" dominant-baseline="middle" font-size="18" font-family="P22 Johnston Underground" x="448.74704068437416" y="644.4881253702401">Medawachchiya</text>
    </g>
    <g>
      <circle r="9" fill="white" stroke="grey" stroke-width="6" cx="439.9482741470236" cy="731.7303031934946"/>
      <text text-anchor="start" dominant-baseline="middle" font-size="18" font-family="P22 Johnston Underground" x="457.9482741470236" y="731.7303031934946">Mihintale</text>
    </g>
    <g>
      <circle r="9" fill="white" stroke="grey" stroke-width="6" cx="856.4905998209452" cy="1448.9579406537775"/>
      <text text-anchor="start" dominant-baseline="middle" font-size="18" font-family="P22 Johnston Underground" x="874.4905998209452" y="1448.9579406537775">Moneragala</text>
    </g>
    <g>
      <circle r="9" fill="white" stroke="grey" stroke-width="6" cx="590.5003481547824" cy="291.2542409391991"/>
      <text text-anchor="start" dominant-baseline="middle" font-size="18" font-family="P22 Johnston Underground" x="608.5003481547824" y="291.2542409391991">Mullaitivu</text>
    </g>
    <g>
      <circle r="9" fill="white" stroke="grey" stroke-width="6" cx="678.4840346165294" cy="1819.591792772901"/>
      <text text-anchor="start" dominant-baseline="middle" font-size="18" font-family="P22 Johnston Underground" x="696.4840346165294" y="1819.591792772901">Nonagama</text>
    </g>
    <g>
      <circle r="9" fill="white" stroke="grey" stroke-width="6" cx="577.917039689647" cy="1404.5128978404869"/>
      <text text-anchor="start" dominant-baseline="middle" font-size="18" font-family="P22 Johnston Underground" x="595.917039689647" y="1404.5128978404869">Nuwara-Eliya</text>
    </g>
    <g>
      <circle r="9" fill="white" stroke="grey" stroke-width="6" cx="295.4143041878093" cy="1072.2171360870266"/>
      <text text-anchor="start" dominant-baseline="middle" font-size="18" font-family="P22 Johnston Underground" x="313.4143041878093" y="1072.2171360870266">Padeniya</text>
    </g>
    <g>
      <circle r="9" fill="white" stroke="grey" stroke-width="6" cx="803.6705461056362" cy="1196.149496472616"/>
      <text text-anchor="start" dominant-baseline="middle" font-size="18" font-family="P22 Johnston Underground" x="821.6705461056362" y="1196.149496472616">Padiyathalawa</text>
    </g>
    <g>
      <circle r="9" fill="white" stroke="grey" stroke-width="6" cx="137.79966179250334" cy="1529.0268727448974"/>
      <text text-anchor="start" dominant-baseline="middle" font-size="18" font-family="P22 Johnston Underground" x="155.79966179250334" y="1529.0268727448974">Panadura</text>
    </g>
    <g>
      <circle r="9" fill="white" stroke="grey" stroke-width="6" cx="388.32189396200107" cy="209.29506166190896"/>
      <text text-anchor="start" dominant-baseline="middle" font-size="18" font-family="P22 Johnston Underground" x="406.32189396200107" y="209.29506166190896">Paranthan</text>
    </g>
    <g>
      <circle r="9" fill="white" stroke="grey" stroke-width="6" cx="276.71341887993526" cy="542.22090581076"/>
      <text text-anchor="start" dominant-baseline="middle" font-size="18" font-family="P22 Johnston Underground" x="294.71341887993526" y="542.22090581076">Parayanalankulam</text>
    </g>
    <g>
      <circle r="9" fill="white" stroke="grey" stroke-width="6" cx="769.9990052720533" cy="1419.3925359470084"/>
      <text text-anchor="start" dominant-baseline="middle" font-size="18" font-family="P22 Johnston Underground" x="787.9990052720533" y="1419.3925359470084">Passara</text>
    </g>
    <g>
      <circle r="9" fill="white" stroke="grey" stroke-width="6" cx="448.00557047647635" cy="1566.4925413323283"/>
      <text text-anchor="start" dominant-baseline="middle" font-size="18" font-family="P22 Johnston Underground" x="466.00557047647635" y="1566.4925413323283">Pelmadulla</text>
    </g>
    <g>
      <circle r="9" fill="white" stroke="grey" stroke-width="6" cx="334.8055306873545" cy="1227.556680488987"/>
      <text text-anchor="start" dominant-baseline="middle" font-size="18" font-family="P22 Johnston Underground" x="352.8055306873545" y="1227.556680488987">Polgahawela</text>
    </g>
    <g>
      <circle r="9" fill="white" stroke="grey" stroke-width="6" cx="682.8111011638308" cy="934.8591738919704"/>
      <text text-anchor="start" dominant-baseline="middle" font-size="18" font-family="P22 Johnston Underground" x="700.8111011638308" y="934.8591738919704">Polonnaruwa</text>
    </g>
    <g>
      <circle r="9" fill="white" stroke="grey" stroke-width="6" cx="1100.0" cy="1451.2359308524963"/>
      <text text-anchor="start" dominant-baseline="middle" font-size="18" font-family="P22 Johnston Underground" x="1118.0" y="1451.2359308524963">Pottuvil</text>
    </g>
    <g>
      <circle r="9" fill="white" stroke="grey" stroke-width="6" cx="100.0" cy="887.3121869782972"/>
      <text text-anchor="start" dominant-baseline="middle" font-size="18" font-family="P22 Johnston Underground" x="118.0" y="887.3121869782972">Puttalam</text>
    </g>
    <g>
      <circle r="9" fill="white" stroke="grey" stroke-width="6" cx="437.262508703868" cy="691.4534977650924"/>
      <text text-anchor="start" dominant-baseline="middle" font-size="18" font-family="P22 Johnston Underground" x="455.262508703868" y="691.4534977650924">Rambewa</text>
    </g>
    <g>
      <circle r="9" fill="white" stroke="grey" stroke-width="6" cx="384.2435094001777" cy="1543.906510851419"/>
      <text text-anchor="start" dominant-baseline="middle" font-size="18" font-family="P22 Johnston Underground" x="402.2435094001777" y="1543.906510851419">Ratnapura</text>
    </g>
    <g>
      <circle r="9" fill="white" stroke="grey" stroke-width="6" cx="961.3846612951362" cy="1434.6114491895096"/>
      <text text-anchor="start" dominant-baseline="middle" font-size="18" font-family="P22 Johnston Underground" x="979.3846612951362" y="1434.6114491895096">Siyabalanduwa</text>
    </g>
    <g>
      <circle r="9" fill="white" stroke="grey" stroke-width="6" cx="934.8254252461905" cy="931.9511012978618"/>
      <text text-anchor="start" dominant-baseline="middle" font-size="18" font-family="P22 Johnston Underground" x="952.8254252461905" y="931.9511012978618">Thiruk'madu</text>
    </g>
    <g>
      <circle r="9" fill="white" stroke="grey" stroke-width="6" cx="789.8438277131169" cy="620.7873337282564"/>
      <text text-anchor="start" dominant-baseline="middle" font-size="18" font-family="P22 Johnston Underground" x="807.8438277131169" y="620.7873337282564">Trincomalee</text>
    </g>
    <g>
      <circle r="9" fill="white" stroke="grey" stroke-width="6" cx="433.23386053914163" cy="541.1061446496851"/>
      <text text-anchor="start" dominant-baseline="middle" font-size="18" font-family="P22 Johnston Underground" x="451.23386053914163" y="541.1061446496851">Vavuniya</text>
    </g>
    <g>
      <circle r="9" fill="white" stroke="grey" stroke-width="6" cx="733.4924898040377" cy="1520.0603155797296"/>
      <text text-anchor="start" dominant-baseline="middle" font-size="18" font-family="P22 Johnston Underground" x="751.4924898040377" y="1520.0603155797296">Wellawaya</text>
    </g>
    <g>
      <circle r="9" fill="white" stroke="grey" stroke-width="6" cx="202.00935044265418" cy="1348.5325004038991"/>
      <text text-anchor="start" dominant-baseline="middle" font-size="18" font-family="P22 Johnston Underground" x="220.00935044265418" y="1348.5325004038991">Yakkala</text>
    </g>
  </g>
</svg>
